<svg width="22" height="22" viewBox="0 0 22 22" fill="none" xmlns="http://www.w3.org/2000/svg">
<path d="M16 1H6C3.23858 1 1 3.23858 1 6V16C1 18.7614 3.23858 21 6 21H16C18.7614 21 21 18.7614 21 16V6C21 3.23858 18.7614 1 16 1Z" stroke="black" stroke-linecap="round" stroke-linejoin="round"/>
<path d="M15 10.37C15.1234 11.2022 14.9813 12.0522 14.5938 12.799C14.2063 13.5458 13.5932 14.1514 12.8416 14.5297C12.0901 14.9079 11.2385 15.0396 10.4078 14.9059C9.57714 14.7723 8.80977 14.3801 8.21485 13.7852C7.61993 13.1902 7.22774 12.4229 7.09408 11.5922C6.96042 10.7615 7.09208 9.90989 7.47034 9.15837C7.8486 8.40685 8.4542 7.79374 9.201 7.40624C9.9478 7.01874 10.7978 6.87658 11.63 7C12.4789 7.12588 13.2649 7.52146 13.8717 8.1283C14.4785 8.73515 14.8741 9.52107 15 10.37Z" stroke="black" stroke-linecap="round" stroke-linejoin="round"/>
<path d="M17.9892 4.85332C18.02 5.06138 17.9845 5.27387 17.8876 5.46057C17.7907 5.64727 17.6375 5.79867 17.4496 5.89323C17.2617 5.9878 17.0488 6.02071 16.8411 5.9873C16.6335 5.95388 16.4416 5.85584 16.2929 5.70711C16.1442 5.55838 16.0461 5.36653 16.0127 5.15887C15.9793 4.9512 16.0122 4.73829 16.1068 4.55041C16.2013 4.36253 16.3527 4.20925 16.5394 4.11238C16.7261 4.0155 16.9386 3.97996 17.1467 4.01082C17.3589 4.04229 17.5554 4.14118 17.7071 4.29289C17.8588 4.4446 17.9577 4.64109 17.9892 4.85332Z" fill="black"/>
</svg>
