<svg width="206" height="33" viewBox="0 0 206 33" fill="none" xmlns="http://www.w3.org/2000/svg">
<path d="M1.64998 25H6.67398C7.05798 25 7.34598 24.808 7.34598 24.52V24.424C7.34598 23.784 6.03398 23.592 6.03398 22.344V17.448H9.10598C14.866 17.448 18.386 14.536 18.386 9.67199C18.386 4.32799 13.778 2.27999 8.27398 2.27999H1.64998C1.20198 2.27999 0.945984 2.43999 0.945984 2.72799V2.85599C0.945984 3.52799 2.16198 3.75199 2.16198 4.93599V22.344C2.16198 23.592 0.945984 23.784 0.945984 24.424V24.52C0.945984 24.808 1.20198 25 1.64998 25ZM7.28198 15.848C6.41798 15.848 6.03398 15.368 6.03398 14.568V5.09599C6.03398 4.32799 6.35398 3.87999 6.96198 3.87999H8.27398C11.378 3.87999 14.418 6.08799 14.418 10.6C14.418 13.704 12.434 15.848 9.10598 15.848H7.28198Z" fill="#E46420"/>
<path d="M32.4535 20.296C31.8135 21.576 30.3735 22.632 28.3575 22.632C26.0855 22.632 24.4535 21.288 23.6535 19.112L31.3975 16.264C32.3895 15.912 33.0295 15.24 33.0295 14.024C33.0295 11.784 31.1735 9.31999 27.0455 9.31999C22.8215 9.31999 19.3975 12.616 19.3975 17.192C19.3975 22.152 22.6935 25.32 26.9815 25.32C31.0455 25.32 33.1895 22.504 33.4775 20.616C33.5415 19.976 32.8055 19.848 32.4535 20.296ZM26.4055 10.536C28.2615 10.536 29.4455 12.84 29.4455 14.152C29.4455 14.792 29.1895 15.24 28.6135 15.496L23.3015 17.8C23.1735 17.16 23.1095 16.488 23.1095 15.752C23.1095 12.68 24.3895 10.536 26.4055 10.536Z" fill="#E46420"/>
<path d="M41.3227 25.32C44.2027 25.32 45.8347 23.176 45.8347 21.032C45.8347 20.456 45.0667 20.36 44.7787 20.872C44.5867 21.8 43.8507 22.536 42.5067 22.536C41.4507 22.536 40.6827 21.704 40.6827 20.168V11.208H44.7147C45.0347 11.208 45.2907 10.984 45.2907 10.664V10.216C45.2907 9.89599 45.0347 9.63999 44.7147 9.63999H40.6827L40.6507 6.53599C40.6507 6.08799 40.4587 5.83199 40.0427 5.83199H39.5627C39.2427 5.83199 38.9867 6.08799 38.9227 6.53599C38.6667 8.39199 37.6747 9.63999 36.0107 9.63999H35.0187C34.6667 9.63999 34.4747 9.86399 34.4747 10.216V10.664C34.4747 10.984 34.6987 11.208 35.0187 11.208H36.8427V20.136C36.8427 23.592 38.6347 25.32 41.3227 25.32Z" fill="#E46420"/>
<path d="M63.24 25.32C67.752 25.32 71.688 22.952 71.688 18.888C71.688 9.44799 58.376 14.248 58.376 7.33599C58.376 5.28799 59.816 3.52799 62.632 3.52799C68.008 3.52799 66.632 8.99999 69.64 8.99999C70.76 8.99999 71.304 8.35999 71.304 7.36799C71.336 4.93599 68.2 1.99199 62.728 1.99199C57.448 1.99199 54.472 4.80799 54.472 8.39199C54.472 17.992 67.784 12.584 67.784 19.944C67.784 22.248 65.992 23.784 63.4 23.784C57.416 23.784 58.472 18.12 55.56 18.024C54.536 17.992 53.992 18.728 53.992 19.624C53.992 21.896 56.936 25.32 63.24 25.32Z" fill="#E46420"/>
<path d="M88.6585 21.992V9.92799C88.6585 9.44799 88.3065 9.35199 87.6345 9.44799L84.2105 9.99199C83.8585 10.056 83.6665 10.28 83.6665 10.568V10.664C83.6665 11.304 84.9145 11.496 84.9145 12.808V19.464C84.9145 22.088 83.4105 23.784 81.4905 23.784C79.4105 23.784 78.2905 22.056 78.2905 18.696L78.3545 9.92799C78.3545 9.44799 77.9385 9.35199 77.2665 9.44799L73.9065 9.99199C73.5545 10.056 73.3305 10.28 73.3305 10.568V10.664C73.3305 11.304 74.5465 11.496 74.5465 12.808V18.344C74.5465 23.016 77.0745 25.32 80.4985 25.32C82.7705 25.32 84.4025 24.424 85.2985 22.824C85.2665 24.616 86.1945 25.192 87.8905 25.192C89.4585 25.192 90.2905 25.032 90.2905 24.392C90.2905 23.336 88.6585 24.424 88.6585 21.992Z" fill="#E46420"/>
<path d="M101.081 9.31999C98.9687 9.31999 97.2087 10.216 96.3127 11.752L96.3447 9.99199C96.3447 9.44799 96.0567 9.09599 95.2887 9.47999L92.3447 10.92C91.9927 11.08 91.7687 11.304 91.7687 11.592V11.72C91.7687 12.456 93.1447 12.52 93.1447 13.736V29.416C93.1447 30.696 91.9287 30.824 91.9287 31.528V31.624C91.9287 31.944 92.2167 32.104 92.6327 32.104H97.4967C97.9127 32.104 98.2007 31.944 98.2007 31.624V31.528C98.2007 30.824 96.8887 30.696 96.8887 29.416V23.624C97.9447 24.712 99.3527 25.32 101.113 25.32C105.145 25.32 108.505 21.928 108.505 17.064C108.505 12.2 104.921 9.31999 101.081 9.31999ZM100.665 24.104C98.7127 24.104 96.8887 21.896 96.8887 19.56V13.64C97.1127 11.848 98.5207 10.536 100.153 10.536C102.905 10.536 104.729 13.672 104.729 18.248C104.729 21.992 103.193 24.104 100.665 24.104Z" fill="#E46420"/>
<path d="M119.643 9.31999C117.531 9.31999 115.771 10.216 114.875 11.752L114.907 9.99199C114.907 9.44799 114.619 9.09599 113.851 9.47999L110.907 10.92C110.555 11.08 110.331 11.304 110.331 11.592V11.72C110.331 12.456 111.707 12.52 111.707 13.736V29.416C111.707 30.696 110.491 30.824 110.491 31.528V31.624C110.491 31.944 110.779 32.104 111.195 32.104H116.059C116.475 32.104 116.763 31.944 116.763 31.624V31.528C116.763 30.824 115.451 30.696 115.451 29.416V23.624C116.507 24.712 117.915 25.32 119.675 25.32C123.707 25.32 127.067 21.928 127.067 17.064C127.067 12.2 123.483 9.31999 119.643 9.31999ZM119.227 24.104C117.275 24.104 115.451 21.896 115.451 19.56V13.64C115.675 11.848 117.083 10.536 118.715 10.536C121.467 10.536 123.291 13.672 123.291 18.248C123.291 21.992 121.755 24.104 119.227 24.104Z" fill="#E46420"/>
<path d="M129.79 25H134.654C135.07 25 135.358 24.808 135.358 24.52V24.424C135.358 23.688 134.046 23.592 134.046 22.344V1.54399C134.046 1.06399 133.63 0.679988 132.894 1.03199L129.662 2.63199C129.342 2.79199 129.118 2.91999 129.118 3.20799V3.30399C129.118 3.87999 130.302 4.13599 130.302 5.47999V22.344C130.302 23.592 129.118 23.688 129.118 24.424V24.52C129.118 24.808 129.374 25 129.79 25Z" fill="#E46420"/>
<path d="M152.92 9.63999H149.368C149.016 9.63999 148.792 9.83199 148.792 10.12V10.216C148.792 10.952 150.872 11.016 150.104 12.84L146.136 22.184L141.912 12.488C141.24 10.984 142.424 10.952 142.424 10.216V10.12C142.424 9.83199 142.2 9.63999 141.88 9.63999H136.824C136.504 9.63999 136.248 9.79999 136.248 10.088V10.216C136.248 10.952 137.208 11.048 137.88 12.456L144.12 25.736C143.128 28.2 141.784 30.504 140.536 30.504C138.712 30.504 139.352 27.08 137.208 27.08C136.216 27.08 135.64 27.752 135.64 28.68C135.64 30.12 137.304 31.816 139.96 31.816C143.16 31.816 144.76 28.232 145.88 25.704L151.928 12.456C152.536 11.08 153.464 10.952 153.464 10.216V10.088C153.464 9.79999 153.24 9.63999 152.92 9.63999Z" fill="#E46420"/>
<path d="M171.274 25.32C176.714 25.32 179.754 21.672 180.298 17.672C180.426 16.712 179.37 16.552 178.922 17.224C177.962 19.24 175.786 21.896 172.266 21.896C168.202 21.896 164.234 17.544 164.234 11.144C164.234 6.59999 167.018 3.62399 170.186 3.62399C175.37 3.62399 175.21 9.73599 178.154 9.73599C179.306 9.73599 179.978 9.03199 179.978 7.97599C179.978 5.31999 176.106 1.99199 171.05 1.99199C164.81 1.99199 160.426 6.75999 160.426 13.384C160.426 19.496 165.514 25.32 171.274 25.32Z" fill="#E46420"/>
<path d="M190.694 25.32C195.334 25.32 198.406 21.8 198.406 17.416C198.406 13 195.014 9.31999 189.958 9.31999C185.574 9.31999 182.022 12.616 182.022 17.16C182.022 21.416 185.254 25.32 190.694 25.32ZM191.174 24.104C187.942 24.104 185.798 19.88 185.798 15.912C185.798 12.392 187.27 10.536 189.542 10.536C192.486 10.536 194.63 14.248 194.63 18.728C194.63 22.184 193.158 24.104 191.174 24.104Z" fill="#E46420"/>
<path d="M202.934 25.32C204.278 25.32 205.398 24.552 205.398 23.048C205.398 21.512 204.278 20.744 202.934 20.744C201.558 20.744 200.438 21.512 200.438 23.048C200.438 24.552 201.558 25.32 202.934 25.32Z" fill="#E46420"/>
</svg>
